<svg width="330" height="330" viewBox="0 0 330 330" fill="none" xmlns="http://www.w3.org/2000/svg">
<path d="M150 165C150 159.183 149.337 153.52 148.084 148.084C120.246 141.667 98.3347 119.754 91.917 91.917C86.4801 90.6636 80.8176 90 75 90C33.5787 90 4.1238e-06 123.579 0 165C0 206.421 33.5787 240 75 240C80.8175 240 86.4802 239.337 91.917 238.084C98.3344 210.246 120.246 188.334 148.084 181.917C149.337 176.48 150 170.817 150 165ZM240 255C240 249.183 239.337 243.52 238.084 238.084C210.246 231.667 188.335 209.754 181.917 181.917C176.48 180.664 170.818 180 165 180C159.183 180 153.521 180.664 148.084 181.917C141.666 209.754 119.754 231.666 91.917 238.084C90.6637 243.521 90 249.183 90 255C90 296.421 123.579 330 165 330C206.421 330 240 296.421 240 255ZM240 75C240 33.5787 206.421 0 165 0C123.579 4.1233e-06 90 33.5787 90 75C90 80.8176 90.6636 86.4801 91.917 91.917C119.754 98.3347 141.667 120.246 148.084 148.084C153.52 149.337 159.183 150 165 150C170.817 150 176.48 149.337 181.917 148.084C188.334 120.246 210.246 98.3344 238.084 91.917C239.337 86.4802 240 80.8175 240 75ZM330 165C330 123.579 296.421 90 255 90C249.183 90 243.521 90.6637 238.084 91.917C231.666 119.754 209.754 141.666 181.917 148.084C180.664 153.521 180 159.183 180 165C180 170.818 180.664 176.48 181.917 181.917C209.754 188.335 231.667 210.246 238.084 238.084C243.52 239.337 249.183 240 255 240C296.421 240 330 206.421 330 165Z" fill="black"/>
</svg>