<svg width="83" height="25" viewBox="0 0 83 25" fill="none" xmlns="http://www.w3.org/2000/svg">
<path d="M0.0227273 24V0.727272H9.20455C10.9621 0.727272 12.4621 1.04167 13.7045 1.67045C14.9545 2.29167 15.9053 3.17424 16.5568 4.31818C17.2159 5.45454 17.5455 6.79167 17.5455 8.32955C17.5455 9.875 17.2121 11.2045 16.5455 12.3182C15.8788 13.4242 14.9129 14.2727 13.6477 14.8636C12.3902 15.4545 10.8674 15.75 9.07955 15.75H2.93182V11.7955H8.28409C9.22348 11.7955 10.0038 11.6667 10.625 11.4091C11.2462 11.1515 11.7083 10.7652 12.0114 10.25C12.322 9.73485 12.4773 9.0947 12.4773 8.32955C12.4773 7.55682 12.322 6.9053 12.0114 6.375C11.7083 5.8447 11.2424 5.44318 10.6136 5.17045C9.99242 4.89015 9.20833 4.75 8.26136 4.75H4.94318V24H0.0227273ZM12.5909 13.4091L18.375 24H12.9432L7.28409 13.4091H12.5909ZM21.0227 24V0.727272H36.7045V4.78409H25.9432V10.3295H35.8977V14.3864H25.9432V19.9432H36.75V24H21.0227ZM53.2415 7.42045C53.1506 6.50379 52.7604 5.79167 52.071 5.28409C51.3816 4.77651 50.446 4.52273 49.2642 4.52273C48.4612 4.52273 47.7831 4.63636 47.2301 4.86364C46.6771 5.08333 46.2528 5.39015 45.9574 5.78409C45.6695 6.17803 45.5256 6.625 45.5256 7.125C45.5104 7.54167 45.5975 7.9053 45.7869 8.21591C45.9839 8.52652 46.2528 8.79545 46.5938 9.02273C46.9347 9.24242 47.3286 9.43561 47.7756 9.60227C48.2225 9.76136 48.6998 9.89773 49.2074 10.0114L51.2983 10.5114C52.3134 10.7386 53.2453 11.0417 54.0938 11.4205C54.9422 11.7992 55.6771 12.2652 56.2983 12.8182C56.9195 13.3712 57.4006 14.0227 57.7415 14.7727C58.09 15.5227 58.268 16.3826 58.2756 17.3523C58.268 18.7765 57.9044 20.0114 57.1847 21.0568C56.4725 22.0947 55.4422 22.9015 54.0938 23.4773C52.7528 24.0455 51.1354 24.3295 49.2415 24.3295C47.3627 24.3295 45.7263 24.0417 44.3324 23.4659C42.946 22.8902 41.8627 22.0379 41.0824 20.9091C40.3097 19.7727 39.9044 18.3674 39.8665 16.6932H44.6278C44.6809 17.4735 44.9044 18.125 45.2983 18.6477C45.6998 19.1629 46.2339 19.553 46.9006 19.8182C47.5748 20.0758 48.3362 20.2045 49.1847 20.2045C50.018 20.2045 50.7415 20.0833 51.3551 19.8409C51.9763 19.5985 52.4574 19.2614 52.7983 18.8295C53.1392 18.3977 53.3097 17.9015 53.3097 17.3409C53.3097 16.8182 53.1544 16.3788 52.8438 16.0227C52.5407 15.6667 52.0938 15.3636 51.5028 15.1136C50.9195 14.8636 50.2036 14.6364 49.3551 14.4318L46.821 13.7955C44.8589 13.3182 43.3097 12.572 42.1733 11.5568C41.0369 10.5417 40.4725 9.17424 40.4801 7.45454C40.4725 6.04545 40.8475 4.81439 41.6051 3.76136C42.3703 2.70833 43.4195 1.88636 44.7528 1.29545C46.0862 0.704545 47.6013 0.40909 49.2983 0.40909C51.0256 0.40909 52.5331 0.704545 53.821 1.29545C55.1165 1.88636 56.1241 2.70833 56.8438 3.76136C57.5634 4.81439 57.9347 6.03409 57.9574 7.42045H53.2415ZM65.0653 24H59.7926L67.8267 0.727272H74.1676L82.1903 24H76.9176L71.0881 6.04545H70.9062L65.0653 24ZM64.7358 14.8523H77.1903V18.6932H64.7358V14.8523Z" fill="black"/>
</svg>
